HIERARCHY
ROOT Hips
{
  OFFSET 55.1295 96.1608 7.73218
  CHANNELS 6 Xposition Yposition Zposition Zrotation Xrotation Yrotation
  JOINT spine
  {
    OFFSET 0 8.13249 0.467659
    CHANNELS 3 Zrotation Xrotation Yrotation
    JOINT spine1
    {
      OFFSET 0 10.3498 0
      CHANNELS 3 Zrotation Xrotation Yrotation
      JOINT spine2
      {
        OFFSET 0 9.91699 0
        CHANNELS 3 Zrotation Xrotation Yrotation
        JOINT Neck
        {
          OFFSET 0 25.461 1.2139
          CHANNELS 3 Zrotation Xrotation Yrotation
          JOINT Head
          {
            OFFSET 0 7.69245 0
            CHANNELS 3 Zrotation Xrotation Yrotation
            End Site
            {
              OFFSET 0 18.62 -6.14063
            }
          }
        }
        JOINT RightShoulder
        {
          OFFSET -4.17575 10.7096 -0.581445
          CHANNELS 3 Zrotation Xrotation Yrotation
          JOINT RightArm
          {
            OFFSET 0 14.0466 0
            CHANNELS 3 Zrotation Xrotation Yrotation
            JOINT RightArmRoll
            {
              OFFSET 0 7.09098 0
              CHANNELS 3 Zrotation Xrotation Yrotation
              JOINT RightForeArm
              {
                OFFSET 0 20.6535 0
                CHANNELS 3 Zrotation Xrotation Yrotation
                JOINT RightForeArmRoll
                {
                  OFFSET 0 7.95718 0
                  CHANNELS 3 Zrotation Xrotation Yrotation
                  JOINT RightHand
                  {
                    OFFSET 0 15.9683 0
                    CHANNELS 3 Zrotation Xrotation Yrotation
                    End Site
                    {
                      OFFSET 0 0 0
                    }
                  }
                }
              }
            }
          }
        }
        JOINT LeftShoulder
        {
          OFFSET 4.17575 10.7096 -0.581445
          CHANNELS 3 Zrotation Xrotation Yrotation
          JOINT LeftArm
          {
            OFFSET 0 14.0466 0
            CHANNELS 3 Zrotation Xrotation Yrotation
            JOINT LeftArmRoll
            {
              OFFSET 0 7.09098 0
              CHANNELS 3 Zrotation Xrotation Yrotation
              JOINT LeftForeArm
              {
                OFFSET 0 20.6535 0
                CHANNELS 3 Zrotation Xrotation Yrotation
                JOINT LeftForeArmRoll
                {
                  OFFSET 0 7.95718 0
                  CHANNELS 3 Zrotation Xrotation Yrotation
                  JOINT LeftHand
                  {
                    OFFSET 0 15.9683 0
                    CHANNELS 3 Zrotation Xrotation Yrotation
                    End Site
                    {
                      OFFSET 0 0 0
                    }
                  }
                }
              }
            }
          }
        }
      }
    }
  }
  JOINT RightUpLeg
  {
    OFFSET -7.20834 -1.32182 -1.10884
    CHANNELS 3 Zrotation Xrotation Yrotation
    JOINT RightUpLegRoll
    {
      OFFSET 0 18.7238 0
      CHANNELS 3 Zrotation Xrotation Yrotation
      JOINT RightLeg
      {
        OFFSET 0 -23.1866 0
        CHANNELS 3 Zrotation Xrotation Yrotation
        JOINT RightLegRoll
        {
          OFFSET 0 23.2624 0
          CHANNELS 3 Zrotation Xrotation Yrotation
          JOINT RightFoot
          {
            OFFSET 0 19.3621 0
            CHANNELS 3 Zrotation Xrotation Yrotation
            JOINT RightToeBase
            {
              OFFSET 0 16.1857 0
              CHANNELS 3 Zrotation Xrotation Yrotation
              End Site
              {
                OFFSET 0.00686052 7.83863 -0.903522
              }
            }
          }
        }
      }
    }
  }
  JOINT LeftUpLeg
  {
    OFFSET 7.20834 -1.32182 -1.10884
    CHANNELS 3 Zrotation Xrotation Yrotation
    JOINT LeftUpLegRoll
    {
      OFFSET 0 18.7239 0
      CHANNELS 3 Zrotation Xrotation Yrotation
      JOINT LeftLeg
      {
        OFFSET 0 23.1865 0
        CHANNELS 3 Zrotation Xrotation Yrotation
        JOINT LeftLegRoll
        {
          OFFSET 0 23.4775 0
          CHANNELS 3 Zrotation Xrotation Yrotation
          JOINT LeftFoot
          {
            OFFSET 0 19.147 0
            CHANNELS 3 Zrotation Xrotation Yrotation
            JOINT LeftToeBase
            {
              OFFSET 0 16.1857 0
              CHANNELS 3 Zrotation Xrotation Yrotation
              End Site
              {
                OFFSET -0.0307459 7.83863 -0.903522
              }
            }
          }
        }
      }
    }
  }
}
MOTION
Frames: 6
Frame Time: 0.00208333
54.5796 96.1785 7.4931 -0.506301 -1.9782 1.0292 0.208255 -2.56789 -0.0391612 0.402361 -1.14034 -0.104552 0.403606 0.504713 -0.111265 -1.30993 15.0254 -3.45112 -2.61979 1.6574 -4.08603 17.5142 -17.162 -15.563 2.5976 50.7627 105.135 1.25487e-006 -2.17462e-007 -4.72925e-006 -5.19275 61.5943 8.9255 -4.17405e-006 -2.18137e-006 -3.0096 8.03012 -4.95137 0.697654 -33.3631 -16.2424 12.4038 6.7723 41.108 -101.142 -1.13591e-006 3.69269e-006 2.80155e-006 1.67106 53.5458 -2.21164 -9.72773e-009 3.94205e-006 3.01097 -8.02934 -4.95142 -0.697651 172.913 1.95896 3.67357 -180 7.01568e-015 179.019 178.427 8.853 179.699 -6.88115e-008 -1.91501e-007 -0.0329534 -16.521 67.78 19.3525 8.13649 25.2327 -3.48774 -173.818 1.19492 -1.48406 4.54188e-006 -4.6773e-006 -0.979184 -1.51741 -11.8088 0.31939 1.73508e-006 -1.14918e-006 -0.217135 20.6634 71.6538 -23.0173 -8.13656 25.2337 3.48638 
54.5766 96.1802 7.49108 -0.513269 -1.98214 1.02293 0.209378 -2.56682 -0.0395819 0.404526 -1.13881 -0.105504 0.405789 0.50624 -0.112254 -1.29161 15.0576 -3.45993 -2.59867 1.64801 -4.08841 17.5514 -17.1699 -15.5674 2.72778 50.786 104.965 1.25487e-006 -2.17462e-007 -4.72925e-006 -5.20835 61.48 8.9038 -4.17405e-006 -2.18137e-006 -3.00959 8.03012 -4.95137 0.697654 -33.4451 -16.2244 12.3771 6.66656 41.0858 -100.964 -1.13591e-006 3.69269e-006 2.80155e-006 1.68598 53.4845 -2.20362 -9.7277e-009 3.94205e-006 3.01097 -8.02934 -4.95142 -0.697651 172.921 1.95095 3.66906 -180 7.01568e-015 179.018 178.428 8.84105 179.699 -6.88115e-008 -1.91501e-007 -0.0331532 -16.5179 67.773 19.3472 8.13649 25.2327 -3.48774 -173.809 1.19321 -1.49001 4.54188e-006 -4.6773e-006 -0.979092 -1.51768 -11.8146 0.319798 1.73508e-006 -1.14918e-006 -0.217098 20.6635 71.6566 -23.0206 -8.13656 25.2337 3.48638 
54.5758 96.1799 7.49116 -0.520282 -1.98628 1.01736 0.21062 -2.56565 -0.0400222 0.407126 -1.13696 -0.106314 0.408404 0.508098 -0.113109 -1.27538 15.0835 -3.46876 -2.57611 1.64385 -4.09114 17.5926 -17.1785 -15.5722 2.8643 50.8073 104.787 1.25487e-006 -2.17462e-007 -4.72925e-006 -5.22367 61.3618 8.88105 -4.17405e-006 -2.18137e-006 -3.00959 8.03012 -4.95137 0.697654 -33.53 -16.2067 12.3504 6.55647 41.0635 -100.779 -1.13591e-006 3.69269e-006 2.80155e-006 1.70401 53.4139 -2.19612 -9.72769e-009 3.94205e-006 3.01097 -8.02934 -4.95142 -0.697651 172.929 1.94263 3.66481 -180 7.01568e-015 179.018 178.428 8.82906 179.7 -6.88115e-008 -1.91501e-007 -0.0333512 -16.5148 67.7661 19.3418 8.13649 25.2327 -3.48774 -173.8 1.19163 -1.49587 4.54188e-006 -4.6773e-006 -0.978996 -1.5179 -11.8206 0.320264 1.73508e-006 -1.14918e-006 -0.217062 20.6631 71.6593 -23.0239 -8.13656 25.2337 3.48638 
54.5804 96.1787 7.48753 -0.527387 -1.99068 1.01228 0.211993 -2.56432 -0.0405118 0.410164 -1.1347 -0.107055 0.411456 0.510356 -0.113906 -1.26183 15.1027 -3.47796 -2.55162 1.64489 -4.09467 17.6379 -17.188 -15.5774 3.00558 50.8264 104.601 1.25487e-006 -2.17462e-007 -4.72925e-006 -5.24035 61.2366 8.85801 -4.17405e-006 -2.18137e-006 -3.00958 8.03012 -4.95137 0.697654 -33.6183 -16.1896 12.3239 6.44251 41.0401 -100.587 -1.13591e-006 3.69269e-006 2.80155e-006 1.72636 53.3316 -2.18961 -9.72771e-009 3.94205e-006 3.01098 -8.02934 -4.95142 -0.697651 172.937 1.93393 3.6608 -180 7.01568e-015 179.017 178.429 8.81696 179.7 -6.88115e-008 -1.91501e-007 -0.0335446 -16.5116 67.7592 19.3364 8.13649 25.2327 -3.48774 -173.791 1.19003 -1.50174 4.54188e-006 -4.6773e-006 -0.978894 -1.51811 -11.8267 0.320803 1.73508e-006 -1.14918e-006 -0.217025 20.6624 71.6618 -23.0271 -8.13656 25.2337 3.48638 
54.5786 96.1794 7.4874 -0.534573 -1.99532 1.00765 0.213483 -2.56286 -0.0410371 0.41359 -1.13209 -0.107724 0.414894 0.512963 -0.114637 -1.25065 15.116 -3.48753 -2.52541 1.65031 -4.09897 17.6869 -17.1982 -15.5829 3.15245 50.8437 104.407 1.25487e-006 -2.17462e-007 -4.72925e-006 -5.25821 61.1051 8.83466 -4.17405e-006 -2.18137e-006 -3.00958 8.03012 -4.95137 0.697654 -33.7097 -16.1729 12.2976 6.32424 41.016 -100.389 -1.13591e-006 3.69269e-006 2.80155e-006 1.75246 53.2389 -2.18389 -9.7277e-009 3.94205e-006 3.01098 -8.02934 -4.95142 -0.697651 172.944 1.92489 3.657 -180 7.01568e-015 179.017 178.429 8.80478 179.7 -6.88115e-008 -1.91501e-007 -0.0337339 -16.5084 67.7524 19.3309 8.13649 25.2327 -3.48774 -173.783 1.18842 -1.50761 4.54188e-006 -4.6773e-006 -0.978787 -1.5183 -11.8329 0.321403 1.73508e-006 -1.14918e-006 -0.216988 20.6613 71.6643 -23.0304 -8.13656 25.2337 3.48638 
54.5812 96.1792 7.49069 -0.541827 -2.00017 1.00345 0.215075 -2.56128 -0.0415848 0.417354 -1.12918 -0.108316 0.418669 0.515868 -0.115299 -1.24155 15.1246 -3.49748 -2.49767 1.65927 -4.10398 17.739 -17.2089 -15.5885 3.30566 50.8591 104.204 1.25487e-006 -2.17462e-007 -4.72925e-006 -5.27706 60.9678 8.81096 -4.17405e-006 -2.18137e-006 -3.00958 8.03012 -4.95137 0.697654 -33.804 -16.1565 12.2713 6.20121 40.9914 -100.185 -1.13591e-006 3.69269e-006 2.80155e-006 1.78176 53.137 -2.17879 -9.7277e-009 3.94205e-006 3.01098 -8.02934 -4.95142 -0.697651 172.952 1.91555 3.65337 -180 7.01567e-015 179.016 178.429 8.79256 179.7 -6.88115e-008 -1.91501e-007 -0.0339195 -16.5052 67.7457 19.3254 8.13649 25.2327 -3.48774 -173.774 1.18682 -1.51349 4.54188e-006 -4.6773e-006 -0.978676 -1.51847 -11.8393 0.322054 1.73508e-006 -1.14918e-006 -0.21695 20.66 71.6666 -23.0337 -8.13656 25.2337 3.48638 
